<?xml version="1.0" encoding="iso-8859-1"?>
<!-- Generator: Adobe Illustrator 19.0.0, SVG Export Plug-In . SVG Version: 6.00 Build 0)  -->
<svg version="1.1" id="Capa_1" xmlns="http://www.w3.org/2000/svg" xmlns:xlink="http://www.w3.org/1999/xlink" x="0px" y="0px"
	 viewBox="0 0 512 512" style="enable-background:new 0 0 512 512;" xml:space="preserve">
<g>
	<g>
		<path d="M318.977,302.694c-8.157,0-14.769-6.613-14.769-14.769V162.462H193.391c-8.157,0-14.769,6.613-14.769,14.769v172.308
			v147.692c0,8.157,6.613,14.769,14.769,14.769h250.435c8.157,0,14.769-6.613,14.769-14.769V302.694H318.977z"/>
	</g>
</g>
<g>
	<g>
		<polygon points="441.119,265.786 333.746,170.588 333.746,273.156 449.431,273.156 		"/>
	</g>
</g>
<g>
	<g>
		<path d="M68.174,0c-8.157,0-14.769,6.613-14.769,14.769v320c0,8.157,6.613,14.769,14.769,14.769h80.91V177.231
			c0-19.39,12.526-35.9,29.907-41.891V0H68.174z"/>
	</g>
</g>
<g>
	<g>
		<path d="M328.407,114.412L208.529,8.126v124.797h110.448c4.946,0,9.805,0.833,14.401,2.413v-9.873
			C333.378,121.239,331.568,117.216,328.407,114.412z"/>
	</g>
</g>
<g>
</g>
<g>
</g>
<g>
</g>
<g>
</g>
<g>
</g>
<g>
</g>
<g>
</g>
<g>
</g>
<g>
</g>
<g>
</g>
<g>
</g>
<g>
</g>
<g>
</g>
<g>
</g>
<g>
</g>
</svg>
